<svg xmlns="http://www.w3.org/2000/svg" xmlns:xlink="http://www.w3.org/1999/xlink" version="1.1" width="256" height="256" viewBox="0 0 256 256" xml:space="preserve">
<desc>Created with Fabric.js 1.7.22</desc>
<defs>
</defs>
<g transform="translate(128 128) scale(0.72 0.72)" style="">
	<g style="stroke: none; stroke-width: 0; stroke-dasharray: none; stroke-linecap: butt; stroke-linejoin: miter; stroke-miterlimit: 10; fill: none; fill-rule: nonzero; opacity: 1;" transform="translate(-175.05 -175.05000000000004) scale(3.89 3.89)" >
	<path d="M 46.664 90 C 31.1 90 15.943 81.929 7.617 67.508 C -4.79 46.019 2.599 18.442 24.089 6.035 c 8.607 -4.968 18.363 -6.927 28.203 -5.661 c 1.676 0.215 3.035 1.46 3.398 3.111 c 0.362 1.65 -0.352 3.35 -1.783 4.247 c -13.124 8.222 -17.337 25.172 -9.591 38.589 l 0 0 c 7.746 13.416 24.531 18.243 38.214 10.988 c 1.493 -0.791 3.323 -0.561 4.57 0.579 c 1.249 1.139 1.647 2.939 0.995 4.498 C 84.267 71.543 77.696 79.011 69.09 83.98 C 62.022 88.06 54.294 90 46.664 90 z M 41.04 8.41 c -4.519 0.681 -8.89 2.21 -12.951 4.555 c -8.559 4.941 -14.682 12.92 -17.24 22.467 s -1.245 19.517 3.697 28.077 c 10.2 17.668 32.871 23.746 50.543 13.543 c 4.061 -2.345 7.571 -5.367 10.42 -8.938 C 60.7 70.776 45.331 64.08 37.387 50.321 l 0 0 C 29.443 36.562 31.33 19.899 41.04 8.41 z" style="stroke: none; stroke-width: 1; stroke-dasharray: none; stroke-linecap: butt; stroke-linejoin: miter; stroke-miterlimit: 10; fill: rgb(0,0,0); fill-rule: nonzero; opacity: 1;" transform=" matrix(1 0 0 1 0 0) " stroke-linecap="round" />
</g>
</g>
</svg>